<svg xmlns="http://www.w3.org/2000/svg" width="32" height="32" viewBox="0 0 256 256"><path fill="#888888" d="M240 212h-12V104a12 12 0 0 0-12-12h-68V40a12 12 0 0 0-12-12H40a12 12 0 0 0-12 12v172H16a4 4 0 0 0 0 8h224a4 4 0 0 0 0-8Zm-24-112a4 4 0 0 1 4 4v108h-72V100ZM36 40a4 4 0 0 1 4-4h96a4 4 0 0 1 4 4v172H36Zm24 32a4 4 0 0 1 4-4h32a4 4 0 0 1 0 8H64a4 4 0 0 1-4-4Zm56 64a4 4 0 0 1-4 4H80a4 4 0 0 1 0-8h32a4 4 0 0 1 4 4Zm-16 40a4 4 0 0 1-4 4H64a4 4 0 0 1 0-8h32a4 4 0 0 1 4 4Zm96 0a4 4 0 0 1-4 4h-16a4 4 0 0 1 0-8h16a4 4 0 0 1 4 4Zm-24-40a4 4 0 0 1 4-4h16a4 4 0 0 1 0 8h-16a4 4 0 0 1-4-4Z"/></svg>